<svg width="42.2" height="73.1" viewBox="0 0 42.2 73.1" xmlns="http://www.w3.org/2000/svg"><g id="svgGroup" stroke-linecap="round" fill-rule="evenodd" font-size="9pt" stroke="#000" stroke-width="0.25mm" fill="#712E1E" style="stroke:#000;stroke-width:0.25mm;fill:#712E1E"><path d="M 29.1 72.3 L 23.4 72.2 L 21 72.2 L 2.8 73.1 Q 1.3 73.1 1.3 72.1 A 1.275 1.275 0 0 1 1.314 71.934 Q 1.352 71.653 1.498 71.087 A 26.426 26.426 0 0 1 1.6 70.7 Q 2.573 68.463 3.025 56.764 A 320.117 320.117 0 0 0 3.05 56.1 Q 3.5 43.8 3.5 33.65 Q 3.5 24.571 3.18 18.572 A 136.128 136.128 0 0 0 3.1 17.2 Q 2.626 9.698 1.653 6.935 A 4.419 4.419 0 0 0 1.1 5.8 A 20.133 20.133 0 0 1 0.726 5.31 Q 0.013 4.342 0 4.011 A 0.307 0.307 0 0 1 0 4 Q 0 2.4 5.4 1.2 Q 10.8 0 13.15 0 A 35.515 35.515 0 0 1 13.97 0.009 Q 15.233 0.038 15.814 0.165 A 1.711 1.711 0 0 1 16.1 0.25 A 0.908 0.908 0 0 1 16.653 0.894 Q 16.7 1.075 16.7 1.3 A 8.798 8.798 0 0 1 16.686 1.723 Q 16.636 2.696 16.407 5.232 A 419.272 419.272 0 0 1 16.3 6.4 A 300.272 300.272 0 0 0 15.616 18.307 Q 15.3 26.472 15.3 35.95 Q 15.3 50.332 15.883 59.796 A 177.633 177.633 0 0 0 16.1 62.9 Q 16.1 63.888 17.633 64.634 A 7.417 7.417 0 0 0 18 64.8 Q 19.566 65.459 21.743 65.575 A 18.003 18.003 0 0 0 22.7 65.6 Q 32.147 65.6 32.487 51.569 A 44.07 44.07 0 0 0 32.5 50.5 A 62.692 62.692 0 0 0 32.484 49.038 Q 32.431 46.787 32.203 45.787 A 2.655 2.655 0 0 0 32.05 45.3 A 15.676 15.676 0 0 1 31.897 44.95 Q 31.6 44.244 31.6 44 A 0.993 0.993 0 0 1 31.71 43.518 Q 31.933 43.109 32.607 43.023 A 3.107 3.107 0 0 1 33 43 A 3.046 3.046 0 0 1 33.74 43.102 Q 34.458 43.283 35.395 43.786 A 14.429 14.429 0 0 1 35.95 44.1 A 10.139 10.139 0 0 1 38.847 46.646 A 9.779 9.779 0 0 1 39 46.85 Q 40.2 48.5 41.2 52.05 A 24.772 24.772 0 0 1 41.884 55.396 Q 42.2 57.7 42.2 60.4 Q 42.2 71.272 39.779 72.211 A 1.314 1.314 0 0 1 39.3 72.3 L 29.1 72.3 Z" vector-effect="non-scaling-stroke"/></g></svg>